<svg xmlns="http://www.w3.org/2000/svg" viewBox="0 0 100 120">
  <defs>
    <radialGradient id="w" cx="35%" cy="35%">
      <stop offset="0%" stop-color="#c8843a"/>
      <stop offset="100%" stop-color="#6b3a10"/>
    </radialGradient>
    <radialGradient id="t" cx="40%" cy="40%">
      <stop offset="0%" stop-color="#b87030"/>
      <stop offset="100%" stop-color="#5a2e08"/>
    </radialGradient>
  </defs>
  <ellipse cx="50" cy="22" rx="30" ry="9" fill="url(#t)" stroke="#3a1a04" stroke-width="1.5"/>
  <path d="M20,22 Q14,60 20,98 Q50,110 80,98 Q86,60 80,22 Q50,34 20,22Z" fill="url(#w)" stroke="#3a1a04" stroke-width="1.5"/>
  <ellipse cx="50" cy="98" rx="30" ry="9" fill="#5a2e08" stroke="#3a1a04" stroke-width="1.5"/>
  <line x1="50" y1="13" x2="50" y2="107" stroke="#5a2808" stroke-width="1" opacity="0.5"/>
  <path d="M35,14 Q30,60 35,106" stroke="#5a2808" stroke-width="1" fill="none" opacity="0.4"/>
  <path d="M65,14 Q70,60 65,106" stroke="#5a2808" stroke-width="1" fill="none" opacity="0.4"/>
  <ellipse cx="50" cy="38" rx="31" ry="8" fill="none" stroke="#8B6914" stroke-width="3.5"/>
  <ellipse cx="50" cy="60" rx="33" ry="9" fill="none" stroke="#8B6914" stroke-width="4"/>
  <ellipse cx="50" cy="82" rx="31" ry="8" fill="none" stroke="#8B6914" stroke-width="3.5"/>
  <path d="M28,28 Q24,60 28,90" stroke="rgba(255,200,100,0.2)" stroke-width="4" fill="none"/>
</svg>
